<?xml version="1.0" encoding="UTF-8" standalone="no"?>
<!DOCTYPE svg PUBLIC "-//W3C//DTD SVG 1.1//EN"
 "http://www.w3.org/Graphics/SVG/1.1/DTD/svg11.dtd">
<!-- Generated by graphviz version 15.1.0 (20260618.0150)
 -->
<!-- Title: planner_worker Pages: 1 -->
<svg width="524pt" height="203pt"
 viewBox="0.00 0.00 524.00 203.00" xmlns="http://www.w3.org/2000/svg" xmlns:xlink="http://www.w3.org/1999/xlink">
<g id="graph0" class="graph" transform="scale(1 1) rotate(0) translate(4 198.65)">
<title>planner_worker</title>
<!-- plan -->
<g id="node1" class="node">
<title>plan</title>
<path fill="#fde8ed" stroke="#ed1944" d="M133.29,-123.65C133.29,-123.65 12,-123.65 12,-123.65 6,-123.65 0,-117.65 0,-111.65 0,-111.65 0,-83 0,-83 0,-77 6,-71 12,-71 12,-71 133.29,-71 133.29,-71 139.29,-71 145.29,-77 145.29,-83 145.29,-83 145.29,-111.65 145.29,-111.65 145.29,-117.65 139.29,-123.65 133.29,-123.65"/>
<text xml:space="preserve" text-anchor="middle" x="72.64" y="-105.05" font-family="Helvetica,sans-Serif" font-size="12.00" fill="#1a1a1a">Planner</text>
<text xml:space="preserve" text-anchor="middle" x="72.64" y="-92.3" font-family="Helvetica,sans-Serif" font-size="12.00" fill="#1a1a1a">zerlegt in unabhängige</text>
<text xml:space="preserve" text-anchor="middle" x="72.64" y="-79.55" font-family="Helvetica,sans-Serif" font-size="12.00" fill="#1a1a1a">Teilaufgaben</text>
</g>
<!-- wa -->
<g id="node2" class="node">
<title>wa</title>
<path fill="#ededed" stroke="#5a5a5a" d="M284.83,-194.65C284.83,-194.65 194.29,-194.65 194.29,-194.65 188.29,-194.65 182.29,-188.65 182.29,-182.65 182.29,-182.65 182.29,-154 182.29,-154 182.29,-148 188.29,-142 194.29,-142 194.29,-142 284.83,-142 284.83,-142 290.83,-142 296.83,-148 296.83,-154 296.83,-154 296.83,-182.65 296.83,-182.65 296.83,-188.65 290.83,-194.65 284.83,-194.65"/>
<text xml:space="preserve" text-anchor="middle" x="239.56" y="-176.05" font-family="Helvetica,sans-Serif" font-size="12.00" fill="#1a1a1a">Worker A</text>
<text xml:space="preserve" text-anchor="middle" x="239.56" y="-163.3" font-family="Helvetica,sans-Serif" font-size="12.00" fill="#1a1a1a">eigener Worktree</text>
<text xml:space="preserve" text-anchor="middle" x="239.56" y="-150.55" font-family="Helvetica,sans-Serif" font-size="12.00" fill="#1a1a1a">Branch feature/a</text>
</g>
<!-- plan&#45;&gt;wa -->
<g id="edge1" class="edge">
<title>plan&#45;&gt;wa</title>
<path fill="none" stroke="#5a5a5a" d="M135.52,-123.96C147.33,-129.05 159.73,-134.39 171.69,-139.53"/>
<polygon fill="#5a5a5a" stroke="#5a5a5a" points="170.09,-142.66 180.66,-143.4 172.86,-136.23 170.09,-142.66"/>
</g>
<!-- wb -->
<g id="node3" class="node">
<title>wb</title>
<path fill="#ededed" stroke="#5a5a5a" d="M284.83,-123.65C284.83,-123.65 194.29,-123.65 194.29,-123.65 188.29,-123.65 182.29,-117.65 182.29,-111.65 182.29,-111.65 182.29,-83 182.29,-83 182.29,-77 188.29,-71 194.29,-71 194.29,-71 284.83,-71 284.83,-71 290.83,-71 296.83,-77 296.83,-83 296.83,-83 296.83,-111.65 296.83,-111.65 296.83,-117.65 290.83,-123.65 284.83,-123.65"/>
<text xml:space="preserve" text-anchor="middle" x="239.56" y="-105.05" font-family="Helvetica,sans-Serif" font-size="12.00" fill="#1a1a1a">Worker B</text>
<text xml:space="preserve" text-anchor="middle" x="239.56" y="-92.3" font-family="Helvetica,sans-Serif" font-size="12.00" fill="#1a1a1a">eigener Worktree</text>
<text xml:space="preserve" text-anchor="middle" x="239.56" y="-79.55" font-family="Helvetica,sans-Serif" font-size="12.00" fill="#1a1a1a">Branch feature/b</text>
</g>
<!-- plan&#45;&gt;wb -->
<g id="edge2" class="edge">
<title>plan&#45;&gt;wb</title>
<path fill="none" stroke="#5a5a5a" d="M145.5,-97.33C153.76,-97.33 162.16,-97.33 170.37,-97.33"/>
<polygon fill="#5a5a5a" stroke="#5a5a5a" points="170.3,-100.83 180.3,-97.33 170.3,-93.83 170.3,-100.83"/>
</g>
<!-- wc -->
<g id="node4" class="node">
<title>wc</title>
<path fill="#ededed" stroke="#5a5a5a" d="M284.83,-52.65C284.83,-52.65 194.29,-52.65 194.29,-52.65 188.29,-52.65 182.29,-46.65 182.29,-40.65 182.29,-40.65 182.29,-12 182.29,-12 182.29,-6 188.29,0 194.29,0 194.29,0 284.83,0 284.83,0 290.83,0 296.83,-6 296.83,-12 296.83,-12 296.83,-40.65 296.83,-40.65 296.83,-46.65 290.83,-52.65 284.83,-52.65"/>
<text xml:space="preserve" text-anchor="middle" x="239.56" y="-34.05" font-family="Helvetica,sans-Serif" font-size="12.00" fill="#1a1a1a">Worker C</text>
<text xml:space="preserve" text-anchor="middle" x="239.56" y="-21.3" font-family="Helvetica,sans-Serif" font-size="12.00" fill="#1a1a1a">eigener Worktree</text>
<text xml:space="preserve" text-anchor="middle" x="239.56" y="-8.55" font-family="Helvetica,sans-Serif" font-size="12.00" fill="#1a1a1a">Branch feature/c</text>
</g>
<!-- plan&#45;&gt;wc -->
<g id="edge3" class="edge">
<title>plan&#45;&gt;wc</title>
<path fill="none" stroke="#5a5a5a" d="M135.52,-70.69C147.33,-65.6 159.73,-60.26 171.69,-55.12"/>
<polygon fill="#5a5a5a" stroke="#5a5a5a" points="172.86,-58.42 180.66,-51.25 170.09,-51.99 172.86,-58.42"/>
</g>
<!-- merge -->
<g id="node5" class="node">
<title>merge</title>
<path fill="#ededed" stroke="#5a5a5a" d="M504.37,-117.28C504.37,-117.28 359.08,-117.28 359.08,-117.28 353.08,-117.28 347.08,-111.28 347.08,-105.28 347.08,-105.28 347.08,-89.38 347.08,-89.38 347.08,-83.38 353.08,-77.38 359.08,-77.38 359.08,-77.38 504.37,-77.38 504.37,-77.38 510.37,-77.38 516.37,-83.38 516.37,-89.38 516.37,-89.38 516.37,-105.28 516.37,-105.28 516.37,-111.28 510.37,-117.28 504.37,-117.28"/>
<text xml:space="preserve" text-anchor="middle" x="431.72" y="-98.67" font-family="Helvetica,sans-Serif" font-size="12.00" fill="#1a1a1a">Merge + Verify</text>
<text xml:space="preserve" text-anchor="middle" x="431.72" y="-85.92" font-family="Helvetica,sans-Serif" font-size="12.00" fill="#1a1a1a">Aggregator — oder Mensch</text>
</g>
<!-- wa&#45;&gt;merge -->
<g id="edge4" class="edge">
<title>wa&#45;&gt;merge</title>
<path fill="none" stroke="#5a5a5a" d="M297.1,-147.21C318.55,-139.21 343.16,-130.02 365.36,-121.73"/>
<polygon fill="#5a5a5a" stroke="#5a5a5a" points="366.47,-125.05 374.62,-118.27 364.03,-118.49 366.47,-125.05"/>
<text xml:space="preserve" text-anchor="middle" x="321.95" y="-140.93" font-family="Helvetica,sans-Serif" font-size="10.00" fill="#5a5a5a">PR</text>
</g>
<!-- wb&#45;&gt;merge -->
<g id="edge5" class="edge">
<title>wb&#45;&gt;merge</title>
<path fill="none" stroke="#5a5a5a" d="M297.1,-97.33C309.13,-97.33 322.14,-97.33 335.17,-97.33"/>
<polygon fill="#5a5a5a" stroke="#5a5a5a" points="335.08,-100.83 345.08,-97.33 335.08,-93.83 335.08,-100.83"/>
<text xml:space="preserve" text-anchor="middle" x="321.95" y="-99.08" font-family="Helvetica,sans-Serif" font-size="10.00" fill="#5a5a5a">PR</text>
</g>
<!-- wc&#45;&gt;merge -->
<g id="edge6" class="edge">
<title>wc&#45;&gt;merge</title>
<path fill="none" stroke="#5a5a5a" d="M297.1,-47.44C318.55,-55.44 343.16,-64.63 365.36,-72.92"/>
<polygon fill="#5a5a5a" stroke="#5a5a5a" points="364.03,-76.16 374.62,-76.38 366.47,-69.6 364.03,-76.16"/>
<text xml:space="preserve" text-anchor="middle" x="321.95" y="-59.32" font-family="Helvetica,sans-Serif" font-size="10.00" fill="#5a5a5a">PR</text>
</g>
</g>
</svg>
