<?xml version="1.0" encoding="UTF-8" standalone="no"?>
<!DOCTYPE svg PUBLIC "-//W3C//DTD SVG 1.1//EN"
 "http://www.w3.org/Graphics/SVG/1.1/DTD/svg11.dtd">
<!-- Generated by graphviz version 15.1.0 (20260618.0150)
 -->
<!-- Title: CardinalityNtoN Pages: 1 -->
<svg width="873pt" height="121pt"
 viewBox="0.00 0.00 873.00 121.00" xmlns="http://www.w3.org/2000/svg" xmlns:xlink="http://www.w3.org/1999/xlink">
<g id="graph0" class="graph" transform="scale(1 1) rotate(0) translate(4 116.84)">
<title>CardinalityNtoN</title>
<polygon fill="white" stroke="none" points="-4,4 -4,-116.84 868.52,-116.84 868.52,4 -4,4"/>
<!-- Tourist -->
<g id="node1" class="node">
<title>Tourist</title>
<polygon fill="#ededed" stroke="black" points="271.66,-58.65 207.66,-58.65 207.66,-22.65 271.66,-22.65 271.66,-58.65"/>
<text xml:space="preserve" text-anchor="middle" x="239.66" y="-33.7" font-family="Helvetica,sans-Serif" font-size="16.00">Tourist</text>
</g>
<!-- visits -->
<g id="node3" class="node">
<title>visits</title>
<polygon fill="white" stroke="black" points="427.99,-36 377.08,-18 427.99,0 478.9,-18 427.99,-36"/>
<text xml:space="preserve" text-anchor="middle" x="427.99" y="-11.05" font-family="Helvetica,sans-Serif" font-size="16.00">visits</text>
</g>
<!-- Tourist&#45;&#45;visits -->
<g id="edge3" class="edge">
<title>Tourist&#45;&#45;visits</title>
<path fill="none" stroke="black" d="M272.03,-36.75C304.53,-32.85 354.61,-26.82 389.21,-22.66"/>
<text xml:space="preserve" text-anchor="middle" x="316.75" y="-30.86" font-family="Helvetica,sans-Serif" font-size="13.00">(0,n)</text>
</g>
<!-- Tourist_Nr -->
<g id="node4" class="node">
<title>Tourist_Nr</title>
<ellipse fill="none" stroke="black" cx="58" cy="-94.84" rx="58" ry="18"/>
<text xml:space="preserve" text-anchor="start" x="23.5" y="-88.89" font-family="Helvetica,sans-Serif" text-decoration="underline" font-size="16.00">Tourist Nr</text>
</g>
<!-- Tourist&#45;&#45;Tourist_Nr -->
<g id="edge1" class="edge">
<title>Tourist&#45;&#45;Tourist_Nr</title>
<path fill="none" stroke="black" d="M207.18,-50.33C177.38,-59.23 133.05,-72.45 100.46,-82.18"/>
</g>
<!-- City -->
<g id="node2" class="node">
<title>City</title>
<polygon fill="#ededed" stroke="black" points="644.51,-45.59 590.51,-45.59 590.51,-9.59 644.51,-9.59 644.51,-45.59"/>
<text xml:space="preserve" text-anchor="middle" x="617.51" y="-20.64" font-family="Helvetica,sans-Serif" font-size="16.00">City</text>
</g>
<!-- City_Name -->
<g id="node5" class="node">
<title>City_Name</title>
<ellipse fill="none" stroke="black" cx="802.43" cy="-69.25" rx="62.1" ry="18"/>
<text xml:space="preserve" text-anchor="start" x="764.93" y="-63.3" font-family="Helvetica,sans-Serif" text-decoration="underline" font-size="16.00">City Name</text>
</g>
<!-- City&#45;&#45;City_Name -->
<g id="edge2" class="edge">
<title>City&#45;&#45;City_Name</title>
<path fill="none" stroke="black" d="M644.8,-33.74C673.13,-40.12 718.07,-50.24 752.73,-58.05"/>
</g>
<!-- visits&#45;&#45;City -->
<g id="edge4" class="edge">
<title>visits&#45;&#45;City</title>
<path fill="none" stroke="black" d="M473.39,-20.3C509.74,-22.14 559.55,-24.66 590.08,-26.2"/>
<text xml:space="preserve" text-anchor="middle" x="517.86" y="-24.4" font-family="Helvetica,sans-Serif" font-size="13.00">(0,n)</text>
</g>
</g>
</svg>
