<?xml version="1.0" encoding="UTF-8" standalone="no"?>
<!DOCTYPE svg PUBLIC "-//W3C//DTD SVG 1.1//EN"
 "http://www.w3.org/Graphics/SVG/1.1/DTD/svg11.dtd">
<!-- Generated by graphviz version 15.1.0 (20260618.0150)
 -->
<!-- Title: CourseRegistration Pages: 1 -->
<svg width="878pt" height="184pt"
 viewBox="0.00 0.00 878.00 184.00" xmlns="http://www.w3.org/2000/svg" xmlns:xlink="http://www.w3.org/1999/xlink">
<g id="graph0" class="graph" transform="scale(1 1) rotate(0) translate(4 179.87)">
<title>CourseRegistration</title>
<polygon fill="white" stroke="none" points="-4,4 -4,-179.87 874.39,-179.87 874.39,4 -4,4"/>
<!-- CourseId -->
<g id="node1" class="node">
<title>CourseId</title>
<ellipse fill="none" stroke="black" cx="60.05" cy="-110" rx="54.06" ry="18"/>
<text xml:space="preserve" text-anchor="start" x="27.42" y="-104.62" font-family="Helvetica,sans-Serif" text-decoration="underline" font-size="15.00">Course Id</text>
</g>
<!-- Course -->
<g id="node3" class="node">
<title>Course</title>
<polygon fill="#ededed" stroke="black" points="251.09,-97 187.09,-97 187.09,-61 251.09,-61 251.09,-97"/>
<text xml:space="preserve" text-anchor="middle" x="219.09" y="-72.62" font-family="Helvetica,sans-Serif" font-size="15.00">Course</text>
</g>
<!-- CourseId&#45;&#45;Course -->
<g id="edge1" class="edge">
<title>CourseId&#45;&#45;Course</title>
<path fill="none" stroke="black" d="M107.32,-100.87C133.01,-95.79 164.28,-89.62 187.04,-85.13"/>
</g>
<!-- Description -->
<g id="node2" class="node">
<title>Description</title>
<ellipse fill="none" stroke="black" cx="60.05" cy="-49" rx="60.05" ry="18"/>
<text xml:space="preserve" text-anchor="middle" x="60.05" y="-42.62" font-family="Helvetica,sans-Serif" font-size="15.00">Description</text>
</g>
<!-- Description&#45;&#45;Course -->
<g id="edge2" class="edge">
<title>Description&#45;&#45;Course</title>
<path fill="none" stroke="black" d="M111.6,-58.66C136.35,-63.38 165.36,-68.93 186.85,-73.03"/>
</g>
<!-- has -->
<g id="node4" class="node">
<title>has</title>
<polygon fill="white" stroke="black" points="388,-97 350.36,-79 388,-61 425.64,-79 388,-97"/>
<polygon fill="none" stroke="black" points="388,-101.43 341.09,-79 388,-56.57 434.91,-79 388,-101.43"/>
<text xml:space="preserve" text-anchor="middle" x="388" y="-72.62" font-family="Helvetica,sans-Serif" font-size="15.00">has</text>
</g>
<!-- Course&#45;&#45;has -->
<g id="edge3" class="edge">
<title>Course&#45;&#45;has</title>
<path fill="none" stroke="black" d="M251.49,-79C276.42,-79 311.67,-79 339.96,-79"/>
<text xml:space="preserve" text-anchor="middle" x="296.09" y="-80.35" font-family="Helvetica,sans-Serif" font-size="12.00">(0,n)</text>
</g>
<!-- Registration -->
<g id="node5" class="node">
<title>Registration</title>
<polygon fill="#ededed" stroke="black" points="624.41,-97 528.91,-97 528.91,-61 624.41,-61 624.41,-97"/>
<polygon fill="none" stroke="black" points="628.41,-101 524.91,-101 524.91,-57 628.41,-57 628.41,-101"/>
<text xml:space="preserve" text-anchor="middle" x="576.66" y="-72.62" font-family="Helvetica,sans-Serif" font-size="15.00">Registration</text>
</g>
<!-- has&#45;&#45;Registration -->
<g id="edge4" class="edge">
<title>has&#45;&#45;Registration</title>
<path fill="none" stroke="black" d="M435.62,-79C462.72,-79 496.91,-79 524.72,-79"/>
<text xml:space="preserve" text-anchor="middle" x="479.91" y="-80.35" font-family="Helvetica,sans-Serif" font-size="12.00">(1,1)</text>
</g>
<!-- RegNr -->
<g id="node6" class="node">
<title>RegNr</title>
<ellipse fill="none" stroke="black" cx="782.9" cy="-149" rx="81.85" ry="26.87"/>
<text xml:space="preserve" text-anchor="start" x="733.02" y="-150.75" font-family="Helvetica,sans-Serif" text-decoration="underline" font-size="15.00">Registration Nr</text>
<text xml:space="preserve" text-anchor="start" x="743.52" y="-135.75" font-family="Helvetica,sans-Serif" font-style="italic" font-size="15.00">(partial key)</text>
</g>
<!-- Registration&#45;&#45;RegNr -->
<g id="edge5" class="edge">
<title>Registration&#45;&#45;RegNr</title>
<path fill="none" stroke="black" d="M628.67,-96.48C657.97,-106.53 694.84,-119.16 725.06,-129.52"/>
</g>
<!-- RegDate -->
<g id="node7" class="node">
<title>RegDate</title>
<ellipse fill="none" stroke="black" cx="782.9" cy="-79" rx="87.49" ry="18"/>
<text xml:space="preserve" text-anchor="middle" x="782.9" y="-72.62" font-family="Helvetica,sans-Serif" font-size="15.00">Registration Date</text>
</g>
<!-- Registration&#45;&#45;RegDate -->
<g id="edge6" class="edge">
<title>Registration&#45;&#45;RegDate</title>
<path fill="none" stroke="black" d="M628.67,-79C648.75,-79 672.39,-79 695.01,-79"/>
</g>
<!-- StudentName -->
<g id="node8" class="node">
<title>StudentName</title>
<ellipse fill="none" stroke="black" cx="782.9" cy="-18" rx="74.52" ry="18"/>
<text xml:space="preserve" text-anchor="middle" x="782.9" y="-11.62" font-family="Helvetica,sans-Serif" font-size="15.00">Student Name</text>
</g>
<!-- Registration&#45;&#45;StudentName -->
<g id="edge7" class="edge">
<title>Registration&#45;&#45;StudentName</title>
<path fill="none" stroke="black" d="M628.67,-63.76C661.16,-54.06 702.95,-41.58 734.68,-32.1"/>
</g>
</g>
</svg>
