<svg id="my-svg" width="100%" xmlns="http://www.w3.org/2000/svg" xmlns:xlink="http://www.w3.org/1999/xlink" style="max-width: 745.422px; background-color: transparent;" viewBox="-87.421875 -39.20000076293945 745.421875 256.6999969482422" role="graphics-document document" aria-roledescription="gitGraph"><style>#my-svg{font-family:"trebuchet ms",verdana,arial,sans-serif;font-size:16px;fill:#333;}@keyframes edge-animation-frame{from{stroke-dashoffset:0;}}@keyframes dash{to{stroke-dashoffset:0;}}#my-svg .edge-animation-slow{stroke-dasharray:9,5!important;stroke-dashoffset:900;animation:dash 50s linear infinite;stroke-linecap:round;}#my-svg .edge-animation-fast{stroke-dasharray:9,5!important;stroke-dashoffset:900;animation:dash 20s linear infinite;stroke-linecap:round;}#my-svg .error-icon{fill:hsl(220.5882352941, 100%, 98.3333333333%);}#my-svg .error-text{fill:rgb(8.5000000002, 5.7500000001, 0);stroke:rgb(8.5000000002, 5.7500000001, 0);}#my-svg .edge-thickness-normal{stroke-width:1px;}#my-svg .edge-thickness-thick{stroke-width:3.5px;}#my-svg .edge-pattern-solid{stroke-dasharray:0;}#my-svg .edge-thickness-invisible{stroke-width:0;fill:none;}#my-svg .edge-pattern-dashed{stroke-dasharray:3;}#my-svg .edge-pattern-dotted{stroke-dasharray:2;}#my-svg .marker{fill:#0b0b0b;stroke:#0b0b0b;}#my-svg .marker.cross{stroke:#0b0b0b;}#my-svg svg{font-family:"trebuchet ms",verdana,arial,sans-serif;font-size:16px;}#my-svg p{margin:0;}#my-svg .commit-id,#my-svg .commit-msg,#my-svg .branch-label{fill:lightgrey;color:lightgrey;font-family:'trebuchet ms',verdana,arial,sans-serif;font-family:var(--mermaid-font-family);}#my-svg .branch-label0{fill:#FFFFFF;}#my-svg .commit0{stroke:#ED1944;fill:#ED1944;}#my-svg .commit-highlight0{stroke:rgb(130.2620967743, 245.2379032258, 221.9173387096);fill:rgb(130.2620967743, 245.2379032258, 221.9173387096);}#my-svg .label0{fill:#ED1944;}#my-svg .arrow0{stroke:#ED1944;}#my-svg .branch-label1{fill:#FFFFFF;}#my-svg .commit1{stroke:#004A8D;fill:#004A8D;}#my-svg .commit-highlight1{stroke:rgb(255, 247.9148936171, 241.5000000002);fill:rgb(255, 247.9148936171, 241.5000000002);}#my-svg .label1{fill:#004A8D;}#my-svg .arrow1{stroke:#004A8D;}#my-svg .branch-label2{fill:#FFFFFF;}#my-svg .commit2{stroke:#5A5A5A;fill:#5A5A5A;}#my-svg .commit-highlight2{stroke:rgb(228.7499999999, 228.7499999999, 228.7499999999);fill:rgb(228.7499999999, 228.7499999999, 228.7499999999);}#my-svg .label2{fill:#5A5A5A;}#my-svg .arrow2{stroke:#5A5A5A;}#my-svg .branch-label3{fill:#1A1A1A;}#my-svg .commit3{stroke:#6FA8DC;fill:#6FA8DC;}#my-svg .commit-highlight3{stroke:rgb(215.2094972067, 150.4078212291, 91.2905027934);fill:rgb(215.2094972067, 150.4078212291, 91.2905027934);}#my-svg .label3{fill:#6FA8DC;}#my-svg .arrow3{stroke:#6FA8DC;}#my-svg .branch-label4{fill:#FFFFFF;}#my-svg .commit4{stroke:#F57C00;fill:#F57C00;}#my-svg .commit-highlight4{stroke:rgb(137.4999999999, 195.5306122448, 255);fill:rgb(137.4999999999, 195.5306122448, 255);}#my-svg .label4{fill:#F57C00;}#my-svg .arrow4{stroke:#F57C00;}#my-svg .branch-label5{fill:#333;}#my-svg .commit5{stroke:hsl(-49.4117647059, 100%, 68.3333333333%);fill:hsl(-49.4117647059, 100%, 68.3333333333%);}#my-svg .commit-highlight5{stroke:rgb(0, 161.5000000002, 28.5);fill:rgb(0, 161.5000000002, 28.5);}#my-svg .label5{fill:hsl(-49.4117647059, 100%, 68.3333333333%);}#my-svg .arrow5{stroke:hsl(-49.4117647059, 100%, 68.3333333333%);}#my-svg .branch-label6{fill:#333;}#my-svg .commit6{stroke:hsl(100.5882352941, 100%, 68.3333333333%);fill:hsl(100.5882352941, 100%, 68.3333333333%);}#my-svg .commit-highlight6{stroke:rgb(109.2500000001, 0, 161.5000000002);fill:rgb(109.2500000001, 0, 161.5000000002);}#my-svg .label6{fill:hsl(100.5882352941, 100%, 68.3333333333%);}#my-svg .arrow6{stroke:hsl(100.5882352941, 100%, 68.3333333333%);}#my-svg .branch-label7{fill:#333;}#my-svg .commit7{stroke:hsl(160.5882352941, 100%, 68.3333333333%);fill:hsl(160.5882352941, 100%, 68.3333333333%);}#my-svg .commit-highlight7{stroke:rgb(161.5000000002, 0, 52.2500000001);fill:rgb(161.5000000002, 0, 52.2500000001);}#my-svg .label7{fill:hsl(160.5882352941, 100%, 68.3333333333%);}#my-svg .arrow7{stroke:hsl(160.5882352941, 100%, 68.3333333333%);}#my-svg .branch-label8{fill:#FFFFFF;}#my-svg .commit8{stroke:#ED1944;fill:#ED1944;}#my-svg .commit-highlight8{stroke:rgb(130.2620967743, 245.2379032258, 221.9173387096);fill:rgb(130.2620967743, 245.2379032258, 221.9173387096);}#my-svg .label8{fill:#ED1944;}#my-svg .arrow8{stroke:#ED1944;}#my-svg .branch-label9{fill:#FFFFFF;}#my-svg .commit9{stroke:#004A8D;fill:#004A8D;}#my-svg .commit-highlight9{stroke:rgb(255, 247.9148936171, 241.5000000002);fill:rgb(255, 247.9148936171, 241.5000000002);}#my-svg .label9{fill:#004A8D;}#my-svg .arrow9{stroke:#004A8D;}#my-svg .branch-label10{fill:#FFFFFF;}#my-svg .commit10{stroke:#5A5A5A;fill:#5A5A5A;}#my-svg .commit-highlight10{stroke:rgb(228.7499999999, 228.7499999999, 228.7499999999);fill:rgb(228.7499999999, 228.7499999999, 228.7499999999);}#my-svg .label10{fill:#5A5A5A;}#my-svg .arrow10{stroke:#5A5A5A;}#my-svg .branch-label11{fill:#1A1A1A;}#my-svg .commit11{stroke:#6FA8DC;fill:#6FA8DC;}#my-svg .commit-highlight11{stroke:rgb(215.2094972067, 150.4078212291, 91.2905027934);fill:rgb(215.2094972067, 150.4078212291, 91.2905027934);}#my-svg .label11{fill:#6FA8DC;}#my-svg .arrow11{stroke:#6FA8DC;}#my-svg .branch{stroke-width:1;stroke:#0b0b0b;stroke-dasharray:2;}#my-svg .commit-label{font-size:10px;fill:rgb(11.0000000001, 34.0000000002, 0);}#my-svg .commit-label-bkg{font-size:10px;fill:hsl(-79.4117647059, 100%, 93.3333333333%);opacity:0.5;}#my-svg .tag-label{font-size:14px;fill:#FFFFFF;}#my-svg .tag-label-bkg{fill:#ED1944;stroke:#ED1944;}#my-svg .tag-hole{fill:#333;}#my-svg .commit-merge{stroke:#fff4dd;fill:#fff4dd;}#my-svg .commit-reverse{stroke:#fff4dd;fill:#fff4dd;stroke-width:3;}#my-svg .commit-highlight-inner{stroke:#fff4dd;fill:#fff4dd;}#my-svg .arrow{stroke-width:8;stroke-linecap:round;fill:none;}#my-svg .gitTitleText{text-anchor:middle;font-size:18px;fill:#333;}#my-svg .node .neo-node{stroke:hsl(40.5882352941, 60%, 83.3333333333%);}#my-svg [data-look="neo"].node rect,#my-svg [data-look="neo"].cluster rect,#my-svg [data-look="neo"].node polygon{stroke:url(#my-svg-gradient);filter:drop-shadow( 1px 2px 2px rgba(185,185,185,1));}#my-svg [data-look="neo"].swimlane.cluster rect{filter:none;}#my-svg [data-look="neo"].node path{stroke:url(#my-svg-gradient);stroke-width:1px;}#my-svg [data-look="neo"].node .outer-path{filter:drop-shadow( 1px 2px 2px rgba(185,185,185,1));}#my-svg [data-look="neo"].node .neo-line path{stroke:hsl(40.5882352941, 60%, 83.3333333333%);filter:none;}#my-svg [data-look="neo"].node circle{stroke:url(#my-svg-gradient);filter:drop-shadow( 1px 2px 2px rgba(185,185,185,1));}#my-svg [data-look="neo"].node circle .state-start{fill:#000000;}#my-svg [data-look="neo"].icon-shape .icon{fill:url(#my-svg-gradient);filter:drop-shadow( 1px 2px 2px rgba(185,185,185,1));}#my-svg [data-look="neo"].icon-shape .icon-neo path{stroke:url(#my-svg-gradient);filter:drop-shadow( 1px 2px 2px rgba(185,185,185,1));}#my-svg :root{--mermaid-font-family:"trebuchet ms",verdana,arial,sans-serif;}</style><g/><defs><linearGradient id="my-svg-gradient" gradientUnits="objectBoundingBox" x1="0%" y1="0%" x2="100%" y2="0%"><stop offset="0%" stop-color="hsl(40.5882352941, 60%, 83.3333333333%)" stop-opacity="1"/><stop offset="100%" stop-color="hsl(-79.4117647059, 60%, 83.3333333333%)" stop-opacity="1"/></linearGradient></defs><g class="commit-bullets"/><g class="commit-labels"/><g><line x1="0" y1="-2" x2="650" y2="-2" class="branch branch0"/><rect class="branchLabelBkg label0" style="" rx="4" ry="4" x="-39" y="0.5" width="53" height="23" transform="translate(-19, -14)"/><g class="branchLabel"><g class="label branch-label0" transform="translate(-49, -13.5)"><text><tspan xml:space="preserve" dy="1em" x="0" class="row">main</tspan></text></g></g><line x1="0" y1="48" x2="650" y2="48" class="branch branch1"/><rect class="branchLabelBkg label1" style="" rx="4" ry="4" x="-60.421875" y="0.5" width="74.421875" height="23" transform="translate(-19, 36)"/><g class="branchLabel"><g class="label branch-label1" transform="translate(-70.421875, 36.5)"><text><tspan xml:space="preserve" dy="1em" x="0" class="row">develop</tspan></text></g></g><line x1="0" y1="98" x2="650" y2="98" class="branch branch2"/><rect class="branchLabelBkg label2" style="" rx="4" ry="4" x="-57.078125" y="0.5" width="71.078125" height="23" transform="translate(-19, 86)"/><g class="branchLabel"><g class="label branch-label2" transform="translate(-67.078125, 86.5)"><text><tspan xml:space="preserve" dy="1em" x="0" class="row">feature</tspan></text></g></g><line x1="0" y1="148" x2="650" y2="148" class="branch branch3"/><rect class="branchLabelBkg label3" style="" rx="4" ry="4" x="-56" y="0.5" width="70" height="23" transform="translate(-19, 136)"/><g class="branchLabel"><g class="label branch-label3" transform="translate(-66, 136.5)"><text><tspan xml:space="preserve" dy="1em" x="0" class="row">release</tspan></text></g></g><line x1="0" y1="198" x2="650" y2="198" class="branch branch4"/><rect class="branchLabelBkg label4" style="" rx="4" ry="4" x="-46.171875" y="0.5" width="60.171875" height="23" transform="translate(-19, 186)"/><g class="branchLabel"><g class="label branch-label4" transform="translate(-56.171875, 186.5)"><text><tspan xml:space="preserve" dy="1em" x="0" class="row">hotfix</tspan></text></g></g></g><g class="commit-arrows"><path d="M 10 -2 L 10 28 A 20 20, 0, 0, 0, 30 48 L 60 48" class="arrow arrow1"/><path d="M 60 48 L 60 78 A 20 20, 0, 0, 0, 80 98 L 110 98" class="arrow arrow2"/><path d="M 110 98 L 160 98" class="arrow arrow2"/><path d="M 60 48 L 210 48" class="arrow arrow1"/><path d="M 160 98 L 190 98 A 20 20, 0, 0, 0, 210 78 L 210 48" class="arrow arrow2"/><path d="M 210 48 L 210 128 A 20 20, 0, 0, 0, 230 148 L 260 148" class="arrow arrow3"/><path d="M 10 -2 L 310 -2" class="arrow arrow0"/><path d="M 260 148 L 290 148 A 20 20, 0, 0, 0, 310 128 L 310 -2" class="arrow arrow3"/><path d="M 210 48 L 360 48" class="arrow arrow1"/><path d="M 260 148 L 340 148 A 20 20, 0, 0, 0, 360 128 L 360 48" class="arrow arrow3"/><path d="M 360 48 L 360 178 A 20 20, 0, 0, 0, 380 198 L 410 198" class="arrow arrow4"/><path d="M 310 -2 L 460 -2" class="arrow arrow0"/><path d="M 410 198 L 440 198 A 20 20, 0, 0, 0, 460 178 L 460 -2" class="arrow arrow4"/><path d="M 360 48 L 510 48" class="arrow arrow1"/><path d="M 410 198 L 490 198 A 20 20, 0, 0, 0, 510 178 L 510 48" class="arrow arrow4"/><path d="M 510 48 L 560 48" class="arrow arrow1"/><path d="M 460 -2 L 610 -2" class="arrow arrow0"/><path d="M 560 48 L 590 48 A 20 20, 0, 0, 0, 610 28 L 610 -2" class="arrow arrow1"/></g><g class="commit-bullets"><circle cx="10" cy="-2" r="10" class="commit 0-0f5a95f commit0"/><circle cx="60" cy="48" r="10" class="commit 1-2eb710f commit1"/><circle cx="110" cy="98" r="10" class="commit 2-0ffe392 commit2"/><circle cx="160" cy="98" r="10" class="commit 3-1743af1 commit2"/><circle cx="210" cy="48" r="10" class="commit 4-86354ba commit1"/><circle cx="210" cy="48" r="6" class="commit commit-merge 4-86354ba commit1"/><circle cx="260" cy="148" r="10" class="commit 5-3b9e8b4 commit3"/><circle cx="310" cy="-2" r="10" class="commit 6-5f43019 commit0"/><circle cx="310" cy="-2" r="6" class="commit commit-merge 6-5f43019 commit0"/><circle cx="360" cy="48" r="10" class="commit 7-83876d9 commit1"/><circle cx="360" cy="48" r="6" class="commit commit-merge 7-83876d9 commit1"/><circle cx="410" cy="198" r="10" class="commit 8-cd29990 commit4"/><circle cx="460" cy="-2" r="10" class="commit 9-a9b9053 commit0"/><circle cx="460" cy="-2" r="6" class="commit commit-merge 9-a9b9053 commit0"/><circle cx="510" cy="48" r="10" class="commit 10-3d51dab commit1"/><circle cx="510" cy="48" r="6" class="commit commit-merge 10-3d51dab commit1"/><circle cx="560" cy="48" r="10" class="commit 11-5e18440 commit1"/><circle cx="610" cy="-2" r="10" class="commit 12-e452eac commit0"/><circle cx="610" cy="-2" r="6" class="commit commit-merge 12-e452eac commit0"/></g><g class="commit-labels"><polygon class="tag-label-bkg" points="284.65625,-19.2  &#10;      284.65625,-23.2&#10;      292.65625,-31.2&#10;      327.34375,-31.2&#10;      327.34375,-11.2&#10;      292.65625,-11.2"/><circle cy="-21.2" cx="288.65625" r="1.5" class="tag-hole"/><text y="-18" class="tag-label" x="296.65625">v1.0</text><polygon class="tag-label-bkg" points="434.65625,-19.2  &#10;      434.65625,-23.2&#10;      442.65625,-31.2&#10;      477.34375,-31.2&#10;      477.34375,-11.2&#10;      442.65625,-11.2"/><circle cy="-21.2" cx="438.65625" r="1.5" class="tag-hole"/><text y="-18" class="tag-label" x="446.65625">v1.1</text><polygon class="tag-label-bkg" points="584.65625,-19.2  &#10;      584.65625,-23.2&#10;      592.65625,-31.2&#10;      627.34375,-31.2&#10;      627.34375,-11.2&#10;      592.65625,-11.2"/><circle cy="-21.2" cx="588.65625" r="1.5" class="tag-hole"/><text y="-18" class="tag-label" x="596.65625">v2.0</text></g></svg>