<?xml version="1.0" encoding="UTF-8" standalone="no"?>
<!DOCTYPE svg PUBLIC "-//W3C//DTD SVG 1.1//EN"
 "http://www.w3.org/Graphics/SVG/1.1/DTD/svg11.dtd">
<!-- Generated by graphviz version 15.1.0 (20260618.0150)
 -->
<!-- Title: BubblesortFlow Pages: 1 -->
<svg width="999pt" height="276pt"
 viewBox="0.00 0.00 999.00 276.00" xmlns="http://www.w3.org/2000/svg" xmlns:xlink="http://www.w3.org/1999/xlink">
<g id="graph0" class="graph" transform="scale(1 1) rotate(0) translate(4 272)">
<title>BubblesortFlow</title>
<polygon fill="white" stroke="none" points="-4,4 -4,-272 995,-272 995,4 -4,4"/>
<!-- start -->
<g id="node1" class="node">
<title>start</title>
<ellipse fill="white" stroke="black" cx="84.5" cy="-167" rx="84.5" ry="24.75"/>
<text xml:space="preserve" text-anchor="middle" x="84.5" y="-168.15" font-family="Helvetica,sans-Serif" font-size="13.00">Neuer Durchlauf</text>
<text xml:space="preserve" text-anchor="middle" x="84.5" y="-154.65" font-family="Helvetica,sans-Serif" font-size="13.00">(äußere Schleife)</text>
</g>
<!-- inner -->
<g id="node2" class="node">
<title>inner</title>
<path fill="#ededed" stroke="black" d="M365,-191.25C365,-191.25 238,-191.25 238,-191.25 232,-191.25 226,-185.25 226,-179.25 226,-179.25 226,-154.75 226,-154.75 226,-148.75 232,-142.75 238,-142.75 238,-142.75 365,-142.75 365,-142.75 371,-142.75 377,-148.75 377,-154.75 377,-154.75 377,-179.25 377,-179.25 377,-185.25 371,-191.25 365,-191.25"/>
<text xml:space="preserve" text-anchor="middle" x="301.5" y="-174.9" font-family="Helvetica,sans-Serif" font-size="13.00">Vergleiche zwei</text>
<text xml:space="preserve" text-anchor="middle" x="301.5" y="-161.4" font-family="Helvetica,sans-Serif" font-size="13.00">benachbarte Elemente</text>
<text xml:space="preserve" text-anchor="middle" x="301.5" y="-147.9" font-family="Helvetica,sans-Serif" font-size="13.00">(innere Schleife)</text>
</g>
<!-- start&#45;&gt;inner -->
<g id="edge4" class="edge">
<title>start&#45;&gt;inner</title>
<path fill="none" stroke="black" d="M169.26,-167C184.22,-167 199.18,-167 214.13,-167"/>
<polygon fill="black" stroke="black" points="214.05,-170.5 224.05,-167 214.05,-163.5 214.05,-170.5"/>
</g>
<!-- decision -->
<g id="node3" class="node">
<title>decision</title>
<path fill="#fff3cd" stroke="black" d="M554.9,-198.93C554.9,-198.93 445.85,-170.07 445.85,-170.07 440.05,-168.54 440.05,-165.46 445.85,-163.93 445.85,-163.93 554.9,-135.07 554.9,-135.07 560.7,-133.54 572.3,-133.54 578.1,-135.07 578.1,-135.07 687.15,-163.93 687.15,-163.93 692.95,-165.46 692.95,-168.54 687.15,-170.07 687.15,-170.07 578.1,-198.93 578.1,-198.93 572.3,-200.46 560.7,-200.46 554.9,-198.93"/>
<text xml:space="preserve" text-anchor="middle" x="566.5" y="-168.15" font-family="Helvetica,sans-Serif" font-size="13.00">Linkes Element</text>
<text xml:space="preserve" text-anchor="middle" x="566.5" y="-154.65" font-family="Helvetica,sans-Serif" font-size="13.00">größer als rechtes?</text>
</g>
<!-- inner&#45;&gt;decision -->
<g id="edge5" class="edge">
<title>inner&#45;&gt;decision</title>
<path fill="none" stroke="black" d="M377.32,-167C391.95,-167 406.57,-167 421.19,-167"/>
<polygon fill="black" stroke="black" points="420.86,-170.5 430.86,-167 420.86,-163.5 420.86,-170.5"/>
</g>
<!-- swap -->
<g id="node4" class="node">
<title>swap</title>
<path fill="#ededed" stroke="black" d="M818.37,-185C818.37,-185 768.62,-185 768.62,-185 762.62,-185 756.62,-179 756.62,-173 756.62,-173 756.62,-161 756.62,-161 756.62,-155 762.62,-149 768.62,-149 768.62,-149 818.37,-149 818.37,-149 824.37,-149 830.37,-155 830.37,-161 830.37,-161 830.37,-173 830.37,-173 830.37,-179 824.37,-185 818.37,-185"/>
<text xml:space="preserve" text-anchor="middle" x="793.5" y="-161.4" font-family="Helvetica,sans-Serif" font-size="13.00">Tauschen</text>
</g>
<!-- decision&#45;&gt;swap -->
<g id="edge6" class="edge">
<title>decision&#45;&gt;swap</title>
<path fill="none" stroke="black" d="M700.51,-167C716.4,-167 731.74,-167 745.21,-167"/>
<polygon fill="black" stroke="black" points="745.03,-170.5 755.03,-167 745.03,-163.5 745.03,-170.5"/>
<text xml:space="preserve" text-anchor="middle" x="727.69" y="-171.55" font-family="Helvetica,sans-Serif" font-size="11.00">ja</text>
</g>
<!-- nextpair -->
<g id="node5" class="node">
<title>nextpair</title>
<path fill="#ededed" stroke="black" d="M979,-185C979,-185 900,-185 900,-185 894,-185 888,-179 888,-173 888,-173 888,-161 888,-161 888,-155 894,-149 900,-149 900,-149 979,-149 979,-149 985,-149 991,-155 991,-161 991,-161 991,-173 991,-173 991,-179 985,-185 979,-185"/>
<text xml:space="preserve" text-anchor="middle" x="939.5" y="-168.15" font-family="Helvetica,sans-Serif" font-size="13.00">Weiter zum</text>
<text xml:space="preserve" text-anchor="middle" x="939.5" y="-154.65" font-family="Helvetica,sans-Serif" font-size="13.00">nächsten Paar</text>
</g>
<!-- decision&#45;&gt;nextpair -->
<g id="edge7" class="edge">
<title>decision&#45;&gt;nextpair</title>
<path fill="none" stroke="black" d="M610.18,-190.78C657.38,-213.53 734.91,-242.41 802.62,-228 836.43,-220.81 872.02,-204.65 898.43,-190.77"/>
<polygon fill="black" stroke="black" points="899.95,-193.92 907.1,-186.11 896.64,-187.76 899.95,-193.92"/>
<text xml:space="preserve" text-anchor="middle" x="792.5" y="-228.55" font-family="Helvetica,sans-Serif" font-size="11.00">nein</text>
</g>
<!-- swap&#45;&gt;nextpair -->
<g id="edge8" class="edge">
<title>swap&#45;&gt;nextpair</title>
<path fill="none" stroke="black" d="M830.85,-167C846.11,-167 861.36,-167 876.62,-167"/>
<polygon fill="black" stroke="black" points="876.21,-170.5 886.21,-167 876.21,-163.5 876.21,-170.5"/>
</g>
<!-- checkend -->
<g id="node6" class="node">
<title>checkend</title>
<path fill="#fff3cd" stroke="black" d="M652.66,-64.86C652.66,-64.86 600.59,-40.14 600.59,-40.14 595.17,-37.57 595.17,-32.43 600.59,-29.86 600.59,-29.86 652.66,-5.14 652.66,-5.14 658.08,-2.57 668.92,-2.57 674.34,-5.14 674.34,-5.14 726.41,-29.86 726.41,-29.86 731.83,-32.43 731.83,-37.57 726.41,-40.14 726.41,-40.14 674.34,-64.86 674.34,-64.86 668.92,-67.43 658.08,-67.43 652.66,-64.86"/>
<text xml:space="preserve" text-anchor="middle" x="663.5" y="-36.15" font-family="Helvetica,sans-Serif" font-size="13.00">Durchlauf</text>
<text xml:space="preserve" text-anchor="middle" x="663.5" y="-22.65" font-family="Helvetica,sans-Serif" font-size="13.00">zu Ende?</text>
</g>
<!-- nextpair&#45;&gt;checkend -->
<g id="edge9" class="edge">
<title>nextpair&#45;&gt;checkend</title>
<path fill="none" stroke="black" d="M902.56,-148.6C852.85,-125.19 764.4,-83.53 710.15,-57.97"/>
<polygon fill="black" stroke="black" points="711.69,-54.83 701.15,-53.73 708.7,-61.16 711.69,-54.83"/>
</g>
<!-- checkend&#45;&gt;inner -->
<g id="edge10" class="edge">
<title>checkend&#45;&gt;inner</title>
<path fill="none" stroke="black" d="M622.2,-50.83C562.93,-72.12 452.67,-111.71 378.19,-138.46"/>
<polygon fill="black" stroke="black" points="377.13,-135.12 368.9,-141.8 379.49,-141.71 377.13,-135.12"/>
<text xml:space="preserve" text-anchor="middle" x="503.48" y="-96.55" font-family="Helvetica,sans-Serif" font-size="11.00">nein</text>
</g>
<!-- placed -->
<g id="node7" class="node">
<title>placed</title>
<path fill="#ededed" stroke="black" d="M519.87,-53C519.87,-53 371.12,-53 371.12,-53 365.12,-53 359.12,-47 359.12,-41 359.12,-41 359.12,-29 359.12,-29 359.12,-23 365.12,-17 371.12,-17 371.12,-17 519.87,-17 519.87,-17 525.87,-17 531.87,-23 531.87,-29 531.87,-29 531.87,-41 531.87,-41 531.87,-47 525.87,-53 519.87,-53"/>
<text xml:space="preserve" text-anchor="middle" x="445.5" y="-36.15" font-family="Helvetica,sans-Serif" font-size="13.00">Größtes verbleibendes</text>
<text xml:space="preserve" text-anchor="middle" x="445.5" y="-22.65" font-family="Helvetica,sans-Serif" font-size="13.00">Element ist richtig platziert</text>
</g>
<!-- checkend&#45;&gt;placed -->
<g id="edge11" class="edge">
<title>checkend&#45;&gt;placed</title>
<path fill="none" stroke="black" d="M588.62,-35C574.16,-35 558.81,-35 543.74,-35"/>
<polygon fill="black" stroke="black" points="543.8,-31.5 533.8,-35 543.8,-38.5 543.8,-31.5"/>
<text xml:space="preserve" text-anchor="middle" x="560.81" y="-39.55" font-family="Helvetica,sans-Serif" font-size="11.00">ja</text>
</g>
<!-- placed&#45;&gt;checkend -->
<!-- checkdone -->
<g id="node8" class="node">
<title>checkdone</title>
<path fill="#fff3cd" stroke="black" d="M73.94,-64.29C73.94,-64.29 30.31,-40.71 30.31,-40.71 25.03,-37.85 25.03,-32.15 30.31,-29.29 30.31,-29.29 73.94,-5.71 73.94,-5.71 79.22,-2.85 89.78,-2.85 95.06,-5.71 95.06,-5.71 138.69,-29.29 138.69,-29.29 143.97,-32.15 143.97,-37.85 138.69,-40.71 138.69,-40.71 95.06,-64.29 95.06,-64.29 89.78,-67.15 79.22,-67.15 73.94,-64.29"/>
<text xml:space="preserve" text-anchor="middle" x="84.5" y="-36.15" font-family="Helvetica,sans-Serif" font-size="13.00">Alles</text>
<text xml:space="preserve" text-anchor="middle" x="84.5" y="-22.65" font-family="Helvetica,sans-Serif" font-size="13.00">sortiert?</text>
</g>
<!-- placed&#45;&gt;checkdone -->
<g id="edge12" class="edge">
<title>placed&#45;&gt;checkdone</title>
<path fill="none" stroke="black" d="M424.73,-53.45C402.09,-72.22 363.89,-100.09 325.17,-111.33 276.79,-125.38 260.38,-124.77 211.83,-111.33 177.84,-101.93 143.81,-80.77 119.49,-63.11"/>
<polygon fill="black" stroke="black" points="121.67,-60.36 111.55,-57.2 117.48,-65.98 121.67,-60.36"/>
</g>
<!-- checkdone&#45;&gt;start -->
<g id="edge13" class="edge">
<title>checkdone&#45;&gt;start</title>
<path fill="none" stroke="black" d="M84.5,-70.31C84.5,-88.87 84.5,-111.77 84.5,-130.51"/>
<polygon fill="black" stroke="black" points="81,-130.34 84.5,-140.34 88,-130.34 81,-130.34"/>
<text xml:space="preserve" text-anchor="middle" x="94.62" y="-96.55" font-family="Helvetica,sans-Serif" font-size="11.00">nein</text>
</g>
<!-- checkdone&#45;&gt;placed -->
<!-- done -->
<g id="node9" class="node">
<title>done</title>
<ellipse fill="#d4edda" stroke="black" cx="268.5" cy="-35" rx="61.87" ry="18"/>
<text xml:space="preserve" text-anchor="middle" x="268.5" y="-29.4" font-family="Helvetica,sans-Serif" font-size="13.00">Fertig sortiert!</text>
</g>
<!-- checkdone&#45;&gt;done -->
<g id="edge14" class="edge">
<title>checkdone&#45;&gt;done</title>
<path fill="none" stroke="black" d="M150.15,-35C164.71,-35 180.22,-35 195.07,-35"/>
<polygon fill="black" stroke="black" points="194.75,-38.5 204.75,-35 194.75,-31.5 194.75,-38.5"/>
<text xml:space="preserve" text-anchor="middle" x="177.94" y="-39.55" font-family="Helvetica,sans-Serif" font-size="11.00">ja</text>
</g>
<!-- done&#45;&gt;checkdone -->
</g>
</svg>
