<?xml version="1.0" encoding="UTF-8" standalone="no"?>
<!DOCTYPE svg PUBLIC "-//W3C//DTD SVG 1.1//EN"
 "http://www.w3.org/Graphics/SVG/1.1/DTD/svg11.dtd">
<!-- Generated by graphviz version 15.1.0 (20260618.0150)
 -->
<!-- Title: EarlyExitFlow Pages: 1 -->
<svg width="957pt" height="129pt"
 viewBox="0.00 0.00 957.00 129.00" xmlns="http://www.w3.org/2000/svg" xmlns:xlink="http://www.w3.org/1999/xlink">
<g id="graph0" class="graph" transform="scale(1 1) rotate(0) translate(4 125.34)">
<title>EarlyExitFlow</title>
<polygon fill="white" stroke="none" points="-4,4 -4,-125.34 953.09,-125.34 953.09,4 -4,4"/>
<!-- start -->
<g id="node1" class="node">
<title>start</title>
<ellipse fill="white" stroke="black" cx="80.79" cy="-25" rx="80.79" ry="24.75"/>
<text xml:space="preserve" text-anchor="middle" x="80.79" y="-26.15" font-family="Helvetica,sans-Serif" font-size="13.00">Neuer Durchlauf</text>
<text xml:space="preserve" text-anchor="middle" x="80.79" y="-12.65" font-family="Helvetica,sans-Serif" font-size="13.00">beginnt</text>
</g>
<!-- pass -->
<g id="node2" class="node">
<title>pass</title>
<path fill="#ededed" stroke="black" d="M384.57,-92C384.57,-92 218.57,-92 218.57,-92 212.57,-92 206.57,-86 206.57,-80 206.57,-80 206.57,-68 206.57,-68 206.57,-62 212.57,-56 218.57,-56 218.57,-56 384.57,-56 384.57,-56 390.57,-56 396.57,-62 396.57,-68 396.57,-68 396.57,-80 396.57,-80 396.57,-86 390.57,-92 384.57,-92"/>
<text xml:space="preserve" text-anchor="middle" x="301.57" y="-75.15" font-family="Helvetica,sans-Serif" font-size="13.00">Durchlauf ausführen</text>
<text xml:space="preserve" text-anchor="middle" x="301.57" y="-61.65" font-family="Helvetica,sans-Serif" font-size="13.00">(vergleichen + ggf. tauschen)</text>
</g>
<!-- start&#45;&gt;pass -->
<g id="edge1" class="edge">
<title>start&#45;&gt;pass</title>
<path fill="none" stroke="black" d="M146.84,-39.57C165.76,-43.81 186.8,-48.52 207.1,-53.07"/>
<polygon fill="black" stroke="black" points="206.29,-56.47 216.81,-55.24 207.82,-49.64 206.29,-56.47"/>
</g>
<!-- check -->
<g id="node3" class="node">
<title>check</title>
<path fill="#fff3cd" stroke="black" d="M573.42,-115.16C573.42,-115.16 453.23,-85.84 453.23,-85.84 447.4,-84.42 447.4,-81.58 453.23,-80.16 453.23,-80.16 573.42,-50.84 573.42,-50.84 579.24,-49.42 590.9,-49.42 596.73,-50.84 596.73,-50.84 716.92,-80.16 716.92,-80.16 722.74,-81.58 722.74,-84.42 716.92,-85.84 716.92,-85.84 596.73,-115.16 596.73,-115.16 590.9,-116.58 579.24,-116.58 573.42,-115.16"/>
<text xml:space="preserve" text-anchor="middle" x="585.07" y="-84.15" font-family="Helvetica,sans-Serif" font-size="13.00">Wurde in diesem</text>
<text xml:space="preserve" text-anchor="middle" x="585.07" y="-70.65" font-family="Helvetica,sans-Serif" font-size="13.00">Durchlauf getauscht?</text>
</g>
<!-- pass&#45;&gt;check -->
<g id="edge2" class="edge">
<title>pass&#45;&gt;check</title>
<path fill="none" stroke="black" d="M396.7,-77.01C412.22,-77.51 428.59,-78.03 444.93,-78.55"/>
<polygon fill="black" stroke="black" points="444.61,-82.04 454.72,-78.86 444.84,-75.05 444.61,-82.04"/>
</g>
<!-- cont -->
<g id="node4" class="node">
<title>cont</title>
<path fill="#ededed" stroke="black" d="M925.08,-36C925.08,-36 816.83,-36 816.83,-36 810.83,-36 804.83,-30 804.83,-24 804.83,-24 804.83,-12 804.83,-12 804.83,-6 810.83,0 816.83,0 816.83,0 925.08,0 925.08,0 931.08,0 937.08,-6 937.08,-12 937.08,-12 937.08,-24 937.08,-24 937.08,-30 931.08,-36 925.08,-36"/>
<text xml:space="preserve" text-anchor="middle" x="870.96" y="-19.15" font-family="Helvetica,sans-Serif" font-size="13.00">Weiter mit dem</text>
<text xml:space="preserve" text-anchor="middle" x="870.96" y="-5.65" font-family="Helvetica,sans-Serif" font-size="13.00">nächsten Durchlauf</text>
</g>
<!-- check&#45;&gt;cont -->
<g id="edge3" class="edge">
<title>check&#45;&gt;cont</title>
<path fill="none" stroke="black" d="M660.66,-65.92C701.59,-56.55 752.25,-44.95 793.48,-35.51"/>
<polygon fill="black" stroke="black" points="794.12,-38.96 803.09,-33.31 792.56,-32.13 794.12,-38.96"/>
<text xml:space="preserve" text-anchor="middle" x="760.7" y="-46.23" font-family="Helvetica,sans-Serif" font-size="11.00">ja</text>
</g>
<!-- done -->
<g id="node5" class="node">
<title>done</title>
<ellipse fill="#d4edda" stroke="black" cx="870.96" cy="-95" rx="78.14" ry="26.34"/>
<text xml:space="preserve" text-anchor="middle" x="870.96" y="-97.28" font-family="Helvetica,sans-Serif" font-size="13.00">Array ist sortiert</text>
<text xml:space="preserve" text-anchor="middle" x="870.96" y="-83.78" font-family="Helvetica,sans-Serif" font-size="13.00">→ Abbruch</text>
</g>
<!-- check&#45;&gt;done -->
<g id="edge4" class="edge">
<title>check&#45;&gt;done</title>
<path fill="none" stroke="black" d="M708.94,-88.19C733.42,-89.23 758.68,-90.3 781.72,-91.27"/>
<polygon fill="black" stroke="black" points="781.54,-94.77 791.68,-91.69 781.84,-87.77 781.54,-94.77"/>
<text xml:space="preserve" text-anchor="middle" x="760.7" y="-92.33" font-family="Helvetica,sans-Serif" font-size="11.00">nein</text>
</g>
<!-- cont&#45;&gt;start -->
<g id="edge5" class="edge">
<title>cont&#45;&gt;start</title>
<path fill="none" stroke="black" d="M804.51,-18.58C664.12,-19.83 333.82,-22.76 172.98,-24.19"/>
<polygon fill="black" stroke="black" points="173.18,-20.69 163.21,-24.28 173.24,-27.69 173.18,-20.69"/>
</g>
</g>
</svg>
