<?xml version="1.0" encoding="UTF-8" standalone="no"?>
<!DOCTYPE svg PUBLIC "-//W3C//DTD SVG 1.1//EN"
 "http://www.w3.org/Graphics/SVG/1.1/DTD/svg11.dtd">
<!-- Generated by graphviz version 15.1.0 (20260618.0150)
 -->
<!-- Title: AssociativeRecap Pages: 1 -->
<svg width="903pt" height="239pt"
 viewBox="0.00 0.00 903.00 239.00" xmlns="http://www.w3.org/2000/svg" xmlns:xlink="http://www.w3.org/1999/xlink">
<g id="graph0" class="graph" transform="scale(1 1) rotate(0) translate(4 235)">
<title>AssociativeRecap</title>
<polygon fill="white" stroke="none" points="-4,4 -4,-235 898.52,-235 898.52,4 -4,4"/>
<!-- Theater -->
<g id="node1" class="node">
<title>Theater</title>
<polygon fill="#ededed" stroke="black" points="62.5,-137 0,-137 0,-101 62.5,-101 62.5,-137"/>
<text xml:space="preserve" text-anchor="middle" x="31.25" y="-113.2" font-family="Helvetica,sans-Serif" font-size="14.00">Theater</text>
</g>
<!-- shownAt -->
<g id="node2" class="node">
<title>shownAt</title>
<polygon fill="white" stroke="black" points="215.34,-137 151,-119 215.34,-101 279.68,-119 215.34,-137"/>
<text xml:space="preserve" text-anchor="middle" x="215.34" y="-113.2" font-family="Helvetica,sans-Serif" font-size="14.00">shown at</text>
</g>
<!-- Theater&#45;&#45;shownAt -->
<g id="edge1" class="edge">
<title>Theater&#45;&#45;shownAt</title>
<path fill="none" stroke="black" d="M62.73,-119C86.32,-119 119.84,-119 149.36,-119"/>
<text xml:space="preserve" text-anchor="middle" x="106.75" y="-120.55" font-family="Helvetica,sans-Serif" font-size="11.00">(0,n)</text>
</g>
<!-- Vorstellung -->
<g id="node3" class="node">
<title>Vorstellung</title>
<polygon fill="#ededed" stroke="black" points="499.93,-138 372.18,-138 372.18,-100 499.93,-100 499.93,-138"/>
<polyline fill="none" stroke="black" points="384.18,-138 372.18,-126"/>
<polyline fill="none" stroke="black" points="372.18,-112 384.18,-100"/>
<polyline fill="none" stroke="black" points="487.93,-100 499.93,-112"/>
<polyline fill="none" stroke="black" points="499.93,-126 487.93,-138"/>
<polygon fill="none" stroke="black" points="503.93,-142 368.18,-142 368.18,-96 503.93,-96 503.93,-142"/>
<polyline fill="none" stroke="black" points="380.18,-142 368.18,-130"/>
<polyline fill="none" stroke="black" points="368.18,-108 380.18,-96"/>
<polyline fill="none" stroke="black" points="491.93,-96 503.93,-108"/>
<polyline fill="none" stroke="black" points="503.93,-130 491.93,-142"/>
<text xml:space="preserve" text-anchor="middle" x="436.06" y="-120.7" font-family="Helvetica,sans-Serif" font-size="14.00">Show</text>
<text xml:space="preserve" text-anchor="middle" x="436.06" y="-105.7" font-family="Helvetica,sans-Serif" font-size="14.00">(associative entity)</text>
</g>
<!-- shownAt&#45;&#45;Vorstellung -->
<g id="edge2" class="edge">
<title>shownAt&#45;&#45;Vorstellung</title>
<path fill="none" stroke="black" d="M281.37,-119C308.7,-119 340.47,-119 368,-119"/>
<text xml:space="preserve" text-anchor="middle" x="323.93" y="-120.55" font-family="Helvetica,sans-Serif" font-size="11.00">(1,1)</text>
</g>
<!-- Begin -->
<g id="node4" class="node">
<title>Begin</title>
<ellipse fill="none" stroke="black" cx="661.6" cy="-213" rx="32.82" ry="18"/>
<text xml:space="preserve" text-anchor="middle" x="661.6" y="-207.2" font-family="Helvetica,sans-Serif" font-size="14.00">Begin</text>
</g>
<!-- Vorstellung&#45;&#45;Begin -->
<g id="edge3" class="edge">
<title>Vorstellung&#45;&#45;Begin</title>
<path fill="none" stroke="black" d="M492.89,-142.48C538.28,-161.56 600.26,-187.63 634.74,-202.13"/>
</g>
<!-- Date -->
<g id="node5" class="node">
<title>Date</title>
<ellipse fill="none" stroke="black" cx="661.6" cy="-148" rx="28.92" ry="18"/>
<text xml:space="preserve" text-anchor="middle" x="661.6" y="-142.2" font-family="Helvetica,sans-Serif" font-size="14.00">Date</text>
</g>
<!-- Vorstellung&#45;&#45;Date -->
<g id="edge4" class="edge">
<title>Vorstellung&#45;&#45;Date</title>
<path fill="none" stroke="black" d="M504.43,-127.74C547.5,-133.33 601.06,-140.28 632.95,-144.41"/>
</g>
<!-- bought -->
<g id="node6" class="node">
<title>bought</title>
<polygon fill="white" stroke="black" points="661.6,-101 592.43,-83 661.6,-65 730.77,-83 661.6,-101"/>
<text xml:space="preserve" text-anchor="middle" x="661.6" y="-77.2" font-family="Helvetica,sans-Serif" font-size="14.00">bought by</text>
</g>
<!-- Vorstellung&#45;&#45;bought -->
<g id="edge5" class="edge">
<title>Vorstellung&#45;&#45;bought</title>
<path fill="none" stroke="black" d="M504.43,-108.15C541.07,-102.25 585.31,-95.13 617.33,-89.97"/>
<text xml:space="preserve" text-anchor="middle" x="548.18" y="-103.63" font-family="Helvetica,sans-Serif" font-size="11.00">(0,n)</text>
</g>
<!-- of -->
<g id="node8" class="node">
<title>of</title>
<polygon fill="white" stroke="black" points="661.6,-36 634.6,-18 661.6,0 688.6,-18 661.6,-36"/>
<text xml:space="preserve" text-anchor="middle" x="661.6" y="-12.2" font-family="Helvetica,sans-Serif" font-size="14.00">of</text>
</g>
<!-- Vorstellung&#45;&#45;of -->
<g id="edge7" class="edge">
<title>Vorstellung&#45;&#45;of</title>
<path fill="none" stroke="black" d="M488.9,-95.57C539.21,-72.85 612.5,-39.73 644.57,-25.24"/>
<text xml:space="preserve" text-anchor="middle" x="548.18" y="-73.08" font-family="Helvetica,sans-Serif" font-size="11.00">(1,1)</text>
</g>
<!-- Customer -->
<g id="node7" class="node">
<title>Customer</title>
<polygon fill="#ededed" stroke="black" points="894.52,-101 819.27,-101 819.27,-65 894.52,-65 894.52,-101"/>
<text xml:space="preserve" text-anchor="middle" x="856.89" y="-77.2" font-family="Helvetica,sans-Serif" font-size="14.00">Customer</text>
</g>
<!-- bought&#45;&#45;Customer -->
<g id="edge6" class="edge">
<title>bought&#45;&#45;Customer</title>
<path fill="none" stroke="black" d="M732.65,-83C761.83,-83 794.5,-83 818.87,-83"/>
<text xml:space="preserve" text-anchor="middle" x="775.02" y="-84.55" font-family="Helvetica,sans-Serif" font-size="11.00">(0,n)</text>
</g>
<!-- Play -->
<g id="node9" class="node">
<title>Play</title>
<polygon fill="#ededed" stroke="black" points="883.89,-36 829.89,-36 829.89,0 883.89,0 883.89,-36"/>
<text xml:space="preserve" text-anchor="middle" x="856.89" y="-12.2" font-family="Helvetica,sans-Serif" font-size="14.00">Play</text>
</g>
<!-- of&#45;&#45;Play -->
<g id="edge8" class="edge">
<title>of&#45;&#45;Play</title>
<path fill="none" stroke="black" d="M689.47,-18C726.51,-18 792.8,-18 829.55,-18"/>
<text xml:space="preserve" text-anchor="middle" x="775.02" y="-19.55" font-family="Helvetica,sans-Serif" font-size="11.00">(0,n)</text>
</g>
</g>
</svg>
